<?xml version="1.0" standalone="no"?>
<!DOCTYPE svg PUBLIC "-//W3C//DTD SVG 20010904//EN"
 "http://www.w3.org/TR/2001/REC-SVG-20010904/DTD/svg10.dtd">
<svg version="1.0" xmlns="http://www.w3.org/2000/svg"
 width="128.000000pt" height="128.000000pt" viewBox="0 0 128.000000 128.000000"
 preserveAspectRatio="xMidYMid meet">

<g transform="translate(0.000000,128.000000) scale(0.100000,-0.100000)"
fill="#000000" stroke="none">
<path d="M189 1257 c-24 -13 -57 -43 -74 -66 l-30 -43 0 -486 0 -487 24 -38
c32 -53 87 -86 152 -94 37 -4 59 -13 70 -27 l17 -21 66 22 66 21 66 -21 67
-22 15 23 c14 22 16 22 282 22 222 0 270 2 280 15 18 22 3 53 -31 60 -39 9
-62 54 -62 126 0 65 26 119 58 119 12 0 26 5 33 12 17 17 17 879 0 896 -9 9
-130 12 -483 12 l-472 0 -44 -23z m931 -437 l0 -379 -447 -3 c-407 -3 -451 -5
-480 -21 l-33 -18 0 367 0 366 34 34 34 34 446 0 446 0 0 -380z m-87 -500
l-16 -40 -373 0 c-325 0 -375 -2 -388 -16 -31 -30 -12 -64 36 -64 26 0 28 -3
28 -40 l0 -40 -46 0 c-39 0 -51 5 -80 34 -29 29 -34 41 -34 81 0 57 12 80 53
105 30 19 54 20 434 20 l401 0 -15 -40z m-473 -174 l0 -53 -40 10 c-28 8 -52
8 -80 0 l-40 -10 0 53 0 54 80 0 80 0 0 -54z m469 23 c6 -18 11 -36 11 -40 0
-5 -90 -9 -200 -9 l-200 0 0 40 0 40 189 0 189 0 11 -31z"/>
<path d="M433 968 c-22 -30 -113 -266 -108 -281 12 -30 57 -31 69 -1 8 20 124
20 132 0 11 -30 57 -29 68 0 7 17 -98 274 -117 286 -18 11 -33 10 -44 -4z m41
-154 c10 -27 7 -34 -19 -34 -23 0 -24 2 -13 25 13 29 23 32 32 9z"/>
<path d="M810 961 c-13 -25 -13 -27 6 -45 10 -10 33 -16 65 -16 l50 0 -61 -90
c-74 -110 -75 -113 -55 -134 13 -12 36 -16 101 -16 91 0 124 10 124 38 0 30
-21 42 -72 42 -26 0 -48 2 -48 5 0 2 27 46 60 96 33 50 60 97 60 103 0 28 -26
36 -122 36 -86 0 -98 -2 -108 -19z"/>
<path d="M636 844 c-9 -8 -16 -19 -16 -24 0 -38 112 -57 144 -24 19 18 19 20
6 45 -14 25 -110 28 -134 3z"/>
</g>
</svg>
