<?xml version="1.0" standalone="no"?>
<!DOCTYPE svg PUBLIC "-//W3C//DTD SVG 20010904//EN"
 "http://www.w3.org/TR/2001/REC-SVG-20010904/DTD/svg10.dtd">
<svg version="1.0" xmlns="http://www.w3.org/2000/svg"
 width="64.000000pt" height="64.000000pt" viewBox="0 0 64.000000 64.000000"
 preserveAspectRatio="xMidYMid meet">

<g transform="translate(0.000000,64.000000) scale(0.100000,-0.100000)"
fill="#000000" stroke="none">
<path d="M0 320 l0 -320 320 0 320 0 0 320 0 320 -320 0 -320 0 0 -320z m560
240 c19 -19 20 -33 20 -240 0 -207 -1 -221 -20 -240 -19 -19 -33 -20 -240 -20
-207 0 -221 1 -240 20 -19 19 -20 33 -20 240 0 207 1 221 20 240 19 19 33 20
240 20 207 0 221 -1 240 -20z"/>
<path d="M105 527 c-3 -7 -4 -105 -3 -217 l3 -205 215 0 215 0 0 215 0 215
-213 3 c-167 2 -214 0 -217 -11z m122 -177 l19 -74 32 67 c17 37 36 67 42 67
6 0 25 -30 42 -67 l32 -67 19 74 c20 82 41 116 53 86 9 -23 -48 -238 -64 -244
-8 -2 -25 23 -45 67 -18 39 -34 71 -37 71 -3 0 -19 -32 -37 -71 -20 -44 -37
-69 -45 -67 -16 6 -73 221 -64 244 12 30 33 -4 53 -86z"/>
</g>
</svg>
