<?xml version="1.0" standalone="no"?>
<!DOCTYPE svg PUBLIC "-//W3C//DTD SVG 20010904//EN"
 "http://www.w3.org/TR/2001/REC-SVG-20010904/DTD/svg10.dtd">
<svg version="1.0" xmlns="http://www.w3.org/2000/svg"
 width="64.000000pt" height="64.000000pt" viewBox="0 0 64.000000 64.000000"
 preserveAspectRatio="xMidYMid meet">

<g transform="translate(0.000000,64.000000) scale(0.100000,-0.100000)"
fill="#000000" stroke="none">
<path d="M80 560 c-19 -19 -20 -33 -20 -240 0 -207 1 -221 20 -240 19 -19 33
-20 240 -20 207 0 221 1 240 20 19 19 20 33 20 240 0 207 -1 221 -20 240 -19
19 -33 20 -240 20 -207 0 -221 -1 -240 -20z m455 -240 l0 -215 -215 0 -215 0
-3 205 c-1 112 0 210 3 217 3 11 50 13 217 11 l213 -3 0 -215z"/>
<path d="M174 436 c-9 -23 48 -238 64 -244 8 -2 25 23 45 67 18 39 34 71 37
71 3 0 19 -32 37 -71 20 -44 37 -69 45 -67 16 6 73 221 64 244 -12 30 -33 -4
-53 -86 l-19 -74 -32 67 c-17 37 -36 67 -42 67 -6 0 -25 -30 -42 -67 l-32 -67
-19 74 c-20 82 -41 116 -53 86z"/>
</g>
</svg>
